<?xml version="1.0" standalone="no"?>
<!DOCTYPE svg PUBLIC "-//W3C//DTD SVG 20010904//EN"
 "http://www.w3.org/TR/2001/REC-SVG-20010904/DTD/svg10.dtd">
<svg version="1.0" xmlns="http://www.w3.org/2000/svg"
 width="298.000000pt" height="298.000000pt" viewBox="0 0 298.000000 298.000000"
 preserveAspectRatio="xMidYMid meet">
<metadata>
Created by potrace 1.14, written by Peter Selinger 2001-2017
</metadata>
<g transform="translate(0.000000,298.000000) scale(0.100000,-0.100000)"
fill="#000000" stroke="none">
<path d="M809 2589 c-9 -18 -7 -27 10 -50 l22 -29 -23 -30 c-17 -24 -20 -35
-12 -48 16 -25 53 -27 78 -3 l23 21 18 -20 c23 -25 61 -26 75 -1 8 16 5 26
-15 49 l-25 29 21 19 c24 21 22 62 -3 78 -13 8 -24 5 -48 -13 l-32 -23 -22 21
c-28 27 -52 27 -67 0z"/>
<path d="M1962 2598 c-7 -7 -12 -25 -12 -40 0 -24 -4 -28 -29 -28 -34 0 -54
-20 -49 -52 2 -19 10 -24 40 -26 35 -3 37 -5 40 -40 2 -30 7 -38 26 -40 32 -5
52 15 52 49 0 25 4 29 28 29 32 0 52 16 52 42 0 20 -28 38 -59 38 -16 0 -21 6
-21 28 0 31 -16 52 -40 52 -9 0 -21 -5 -28 -12z"/>
<path d="M1280 2260 c-41 -11 -118 -41 -170 -67 -80 -39 -109 -61 -186 -137
-103 -104 -151 -181 -197 -319 -28 -84 -31 -104 -31 -227 -1 -114 3 -146 22
-209 13 -40 21 -75 19 -78 -10 -9 -85 37 -111 67 -33 40 -35 100 -5 149 11 18
19 45 17 60 -2 22 -8 26 -33 26 -26 0 -33 -7 -57 -54 -76 -150 -1 -280 197
-341 421 -128 1264 97 1568 419 85 91 102 127 102 222 0 68 -3 79 -28 113 -33
42 -97 86 -127 86 -12 0 -25 -10 -32 -26 -11 -24 -10 -28 12 -43 14 -8 42 -32
63 -52 49 -48 52 -103 8 -170 -63 -95 -74 -98 -84 -25 -14 100 -77 237 -158
342 -98 127 -280 238 -444 269 -107 21 -253 18 -345 -5z m325 -275 c46 -45 19
-115 -45 -115 -65 0 -94 79 -44 119 35 27 59 26 89 -4z m-574 -374 c16 -16 29
-37 29 -46 0 -24 -27 -72 -45 -79 -88 -33 -159 72 -90 132 36 30 71 28 106 -7z
m652 -65 c43 -17 67 -56 67 -105 0 -123 -189 -140 -215 -20 -13 58 23 117 80
132 32 8 34 8 68 -7z"/>
<path d="M322 1738 c-18 -18 -15 -39 10 -65 l21 -23 -21 -23 c-51 -54 1 -104
60 -57 25 19 26 19 43 0 23 -25 61 -26 75 -1 8 16 5 25 -14 48 l-24 28 23 29
c19 24 21 33 12 53 -13 29 -44 30 -74 1 l-23 -21 -23 21 c-26 25 -47 28 -65
10z"/>
<path d="M2526 1445 c-3 -9 -6 -27 -6 -40 0 -19 -6 -24 -31 -27 -64 -6 -64
-70 -1 -76 26 -3 31 -8 34 -34 6 -63 70 -63 76 1 3 27 7 31 31 31 34 0 54 21
49 52 -2 19 -10 24 -40 26 -35 3 -37 5 -40 40 -3 33 -6 37 -34 40 -22 2 -33
-2 -38 -13z"/>
<path d="M2165 1343 c-73 -51 -309 -165 -418 -201 -263 -88 -431 -116 -684
-117 -112 0 -203 -3 -203 -6 0 -4 31 -36 68 -71 189 -178 429 -250 682 -204
286 52 521 265 601 546 30 104 29 106 -46 53z"/>
<path d="M1028 599 c-12 -6 -18 -22 -18 -44 0 -32 -2 -34 -37 -37 -31 -2 -39
-7 -41 -26 -5 -32 15 -52 49 -52 25 0 29 -4 29 -28 0 -32 16 -52 42 -52 20 0
38 28 38 59 0 15 6 21 21 21 31 0 59 18 59 38 0 26 -20 42 -51 42 -24 0 -28 5
-31 31 -4 38 -35 63 -60 48z"/>
<path d="M2042 548 c-17 -17 -15 -32 9 -62 l21 -27 -21 -23 c-24 -25 -27 -46
-9 -64 18 -18 39 -15 64 9 l22 21 32 -23 c24 -18 35 -21 48 -13 25 16 27 53 3
78 l-21 23 20 18 c13 12 20 29 18 44 -4 34 -42 40 -72 12 l-23 -21 -18 20
c-20 22 -55 26 -73 8z"/>
</g>
</svg>
